<svg width="223" height="182" viewBox="0 0 223 182" fill="none" xmlns="http://www.w3.org/2000/svg">
<path d="M56.1759 105.282C62.9002 109.166 71.4975 106.863 75.3784 100.137C79.2594 93.4115 76.9544 84.8103 70.2301 80.9259C63.5058 77.0415 54.9086 79.3448 51.0276 86.0705C47.1467 92.7962 49.4516 101.397 56.1759 105.282Z" fill="#CA4590"/>
<path d="M124.121 77.2214L99.6797 63.3945L86.4149 86.8689L110.857 100.696L124.121 77.2214Z" fill="#E5BD54"/>
<path d="M105.008 82.4206C111.732 86.305 120.329 84.0017 124.21 77.276C128.091 70.5502 125.786 61.949 119.062 58.0646C112.338 54.1802 103.741 56.4835 99.8596 63.2092C95.9786 69.9349 98.2836 78.5362 105.008 82.4206Z" fill="#E5BD54"/>
<path d="M92.3165 104.624C99.0408 108.508 107.638 106.205 111.519 99.4791C115.4 92.7534 113.095 84.1521 106.371 80.2677C99.6464 76.3833 91.0492 78.6866 87.1682 85.4123C83.2873 92.1381 85.5922 100.739 92.3165 104.624Z" fill="#E5BD54"/>
<path fill-rule="evenodd" clip-rule="evenodd" d="M173.124 65.9771L148.773 51.9107L129.374 85.5259C129.331 85.5982 129.288 85.6705 129.245 85.7447C129.202 85.8189 129.159 85.8912 129.12 85.9654C129.108 85.983 129.101 86.0025 129.089 86.0201C125.429 92.7037 127.761 101.126 134.394 104.956C141.026 108.788 149.483 106.602 153.44 100.086L153.597 99.8111L173.124 65.9771Z" fill="#7986E9"/>
<path d="M153.762 71.3894C160.486 75.2738 169.083 72.9705 172.964 66.2448C176.845 59.5191 174.54 50.9178 167.816 47.0334C161.092 43.149 152.495 45.4523 148.614 52.178C144.733 58.9038 147.038 67.505 153.762 71.3894Z" fill="#7986E9"/>
<path d="M49.9801 124.504H52.2841L54.5521 130.456L56.8441 124.504H59.1241V133H57.6841V125.944H57.6601L55.0801 133H54.0241L51.4441 125.944H51.4201V133H49.9801V124.504ZM82.8575 129.88C82.8575 130.392 82.7695 130.856 82.5935 131.272C82.4175 131.68 82.1775 132.028 81.8735 132.316C81.5695 132.604 81.2095 132.828 80.7935 132.988C80.3775 133.14 79.9255 133.216 79.4375 133.216C78.9495 133.216 78.4975 133.14 78.0815 132.988C77.6655 132.828 77.3015 132.604 76.9895 132.316C76.6855 132.028 76.4455 131.68 76.2695 131.272C76.1015 130.856 76.0175 130.392 76.0175 129.88V124.504H77.5295V129.832C77.5295 130.04 77.5615 130.26 77.6255 130.492C77.6895 130.716 77.7935 130.924 77.9375 131.116C78.0895 131.308 78.2855 131.468 78.5255 131.596C78.7735 131.716 79.0775 131.776 79.4375 131.776C79.7975 131.776 80.0975 131.716 80.3375 131.596C80.5855 131.468 80.7815 131.308 80.9255 131.116C81.0775 130.924 81.1855 130.716 81.2495 130.492C81.3135 130.26 81.3455 130.04 81.3455 129.832V124.504H82.8575V129.88ZM103.878 126.328C103.718 126.096 103.502 125.928 103.23 125.824C102.966 125.712 102.686 125.656 102.39 125.656C102.214 125.656 102.042 125.676 101.874 125.716C101.714 125.756 101.566 125.82 101.43 125.908C101.302 125.996 101.198 126.112 101.118 126.256C101.038 126.392 100.998 126.556 100.998 126.748C100.998 127.036 101.098 127.256 101.298 127.408C101.498 127.56 101.746 127.692 102.042 127.804C102.338 127.916 102.662 128.024 103.014 128.128C103.366 128.232 103.69 128.376 103.986 128.56C104.282 128.744 104.53 128.988 104.73 129.292C104.93 129.596 105.03 130 105.03 130.504C105.03 130.96 104.946 131.36 104.778 131.704C104.61 132.04 104.382 132.32 104.094 132.544C103.814 132.768 103.486 132.936 103.11 133.048C102.734 133.16 102.338 133.216 101.922 133.216C101.394 133.216 100.886 133.128 100.398 132.952C99.9096 132.776 99.4896 132.48 99.1376 132.064L100.278 130.96C100.462 131.24 100.702 131.46 100.998 131.62C101.302 131.772 101.622 131.848 101.958 131.848C102.134 131.848 102.31 131.824 102.486 131.776C102.662 131.728 102.822 131.656 102.966 131.56C103.11 131.464 103.226 131.344 103.314 131.2C103.402 131.048 103.446 130.876 103.446 130.684C103.446 130.372 103.346 130.132 103.146 129.964C102.946 129.796 102.698 129.656 102.402 129.544C102.106 129.424 101.782 129.312 101.43 129.208C101.078 129.104 100.754 128.964 100.458 128.788C100.162 128.604 99.9136 128.364 99.7136 128.068C99.5136 127.764 99.4136 127.36 99.4136 126.856C99.4136 126.416 99.5016 126.036 99.6776 125.716C99.8616 125.396 100.098 125.132 100.386 124.924C100.682 124.708 101.018 124.548 101.394 124.444C101.77 124.34 102.154 124.288 102.546 124.288C102.994 124.288 103.426 124.356 103.842 124.492C104.266 124.628 104.646 124.852 104.982 125.164L103.878 126.328ZM121.604 124.504H127.232V125.872H123.116V127.96H127.016V129.328H123.116V131.632H127.448V133H121.604V124.504ZM148.104 126.328C147.944 126.096 147.728 125.928 147.456 125.824C147.192 125.712 146.912 125.656 146.616 125.656C146.44 125.656 146.268 125.676 146.1 125.716C145.94 125.756 145.792 125.82 145.656 125.908C145.528 125.996 145.424 126.112 145.344 126.256C145.264 126.392 145.224 126.556 145.224 126.748C145.224 127.036 145.324 127.256 145.524 127.408C145.724 127.56 145.972 127.692 146.268 127.804C146.564 127.916 146.888 128.024 147.24 128.128C147.592 128.232 147.916 128.376 148.212 128.56C148.508 128.744 148.756 128.988 148.956 129.292C149.156 129.596 149.256 130 149.256 130.504C149.256 130.96 149.172 131.36 149.004 131.704C148.836 132.04 148.608 132.32 148.32 132.544C148.04 132.768 147.712 132.936 147.336 133.048C146.96 133.16 146.564 133.216 146.148 133.216C145.62 133.216 145.112 133.128 144.624 132.952C144.136 132.776 143.716 132.48 143.364 132.064L144.504 130.96C144.688 131.24 144.928 131.46 145.224 131.62C145.528 131.772 145.848 131.848 146.184 131.848C146.36 131.848 146.536 131.824 146.712 131.776C146.888 131.728 147.048 131.656 147.192 131.56C147.336 131.464 147.452 131.344 147.54 131.2C147.628 131.048 147.672 130.876 147.672 130.684C147.672 130.372 147.572 130.132 147.372 129.964C147.172 129.796 146.924 129.656 146.628 129.544C146.332 129.424 146.008 129.312 145.656 129.208C145.304 129.104 144.98 128.964 144.684 128.788C144.388 128.604 144.14 128.364 143.94 128.068C143.74 127.764 143.64 127.36 143.64 126.856C143.64 126.416 143.728 126.036 143.904 125.716C144.088 125.396 144.324 125.132 144.612 124.924C144.908 124.708 145.244 124.548 145.62 124.444C145.996 124.34 146.38 124.288 146.772 124.288C147.22 124.288 147.652 124.356 148.068 124.492C148.492 124.628 148.872 124.852 149.208 125.164L148.104 126.328Z" fill="#464646"/>
<path d="M125.198 152.888V150.032H124.974C124.946 150.163 124.899 150.247 124.834 150.284C124.769 150.312 124.671 150.326 124.54 150.326C124.419 150.326 124.269 150.298 124.092 150.242C123.915 150.186 123.714 150.13 123.49 150.074C123.275 150.009 123.037 149.948 122.776 149.892C122.524 149.836 122.249 149.808 121.95 149.808C121.353 149.808 120.741 149.934 120.116 150.186C119.5 150.429 118.94 150.779 118.436 151.236C117.932 151.693 117.517 152.244 117.19 152.888C116.873 153.532 116.714 154.251 116.714 155.044C116.714 155.772 116.859 156.449 117.148 157.074C117.437 157.699 117.82 158.245 118.296 158.712C118.781 159.169 119.341 159.533 119.976 159.804C120.611 160.065 121.269 160.196 121.95 160.196C122.249 160.196 122.533 160.168 122.804 160.112C123.075 160.065 123.322 160.014 123.546 159.958C123.779 159.893 123.985 159.837 124.162 159.79C124.339 159.734 124.484 159.706 124.596 159.706C124.727 159.706 124.825 159.729 124.89 159.776C124.955 159.813 125.011 159.888 125.058 160H125.282V157.032H125.058C124.974 157.415 124.843 157.783 124.666 158.138C124.489 158.493 124.269 158.81 124.008 159.09C123.747 159.361 123.443 159.58 123.098 159.748C122.762 159.916 122.384 160 121.964 160C121.441 160 120.989 159.925 120.606 159.776C120.233 159.627 119.925 159.365 119.682 158.992C119.449 158.619 119.276 158.115 119.164 157.48C119.052 156.845 118.996 156.043 118.996 155.072C118.996 154.335 119.024 153.658 119.08 153.042C119.136 152.417 119.262 151.88 119.458 151.432C119.663 150.984 119.962 150.634 120.354 150.382C120.746 150.13 121.283 150.004 121.964 150.004C122.468 150.004 122.888 150.097 123.224 150.284C123.569 150.461 123.854 150.695 124.078 150.984C124.311 151.264 124.498 151.577 124.638 151.922C124.787 152.258 124.913 152.58 125.016 152.888H125.198ZM129.996 160C129.632 160 129.347 159.916 129.142 159.748C128.936 159.571 128.782 159.342 128.68 159.062C128.586 158.782 128.526 158.46 128.498 158.096C128.479 157.732 128.47 157.363 128.47 156.99C128.47 156.617 128.479 156.253 128.498 155.898C128.526 155.534 128.586 155.212 128.68 154.932C128.782 154.652 128.936 154.428 129.142 154.26C129.347 154.083 129.632 153.994 129.996 153.994C130.36 153.994 130.644 154.083 130.85 154.26C131.055 154.428 131.204 154.652 131.298 154.932C131.4 155.212 131.461 155.534 131.48 155.898C131.508 156.253 131.522 156.617 131.522 156.99C131.522 157.363 131.508 157.732 131.48 158.096C131.461 158.46 131.4 158.782 131.298 159.062C131.204 159.342 131.055 159.571 130.85 159.748C130.644 159.916 130.36 160 129.996 160ZM129.996 153.798C129.51 153.798 129.058 153.887 128.638 154.064C128.227 154.232 127.868 154.461 127.56 154.75C127.252 155.039 127.009 155.38 126.832 155.772C126.664 156.155 126.58 156.561 126.58 156.99C126.58 157.429 126.664 157.844 126.832 158.236C127.009 158.619 127.252 158.955 127.56 159.244C127.868 159.533 128.227 159.762 128.638 159.93C129.058 160.098 129.51 160.182 129.996 160.182C130.481 160.182 130.929 160.098 131.34 159.93C131.76 159.762 132.124 159.533 132.432 159.244C132.74 158.955 132.978 158.619 133.146 158.236C133.323 157.844 133.412 157.429 133.412 156.99C133.412 156.561 133.323 156.155 133.146 155.772C132.978 155.38 132.74 155.039 132.432 154.75C132.124 154.461 131.76 154.232 131.34 154.064C130.929 153.887 130.481 153.798 129.996 153.798ZM139.119 157.004C139.119 157.293 139.105 157.615 139.077 157.97C139.058 158.315 138.993 158.642 138.881 158.95C138.769 159.249 138.601 159.501 138.377 159.706C138.162 159.902 137.859 160 137.467 160C137.205 160 136.995 159.93 136.837 159.79C136.687 159.65 136.571 159.449 136.487 159.188C136.412 158.927 136.361 158.614 136.333 158.25C136.314 157.877 136.305 157.461 136.305 157.004C136.305 156.444 136.323 155.973 136.361 155.59C136.407 155.198 136.482 154.885 136.585 154.652C136.687 154.419 136.818 154.251 136.977 154.148C137.145 154.045 137.345 153.994 137.579 153.994C137.924 153.994 138.199 154.092 138.405 154.288C138.61 154.484 138.764 154.731 138.867 155.03C138.969 155.329 139.035 155.655 139.063 156.01C139.1 156.365 139.119 156.696 139.119 157.004ZM140.827 159.804V149.906H138.167V150.102H139.119V154.974H139.091C138.951 154.582 138.75 154.288 138.489 154.092C138.227 153.896 137.887 153.798 137.467 153.798C136.925 153.798 136.463 153.905 136.081 154.12C135.698 154.325 135.381 154.587 135.129 154.904C134.886 155.221 134.704 155.567 134.583 155.94C134.471 156.313 134.415 156.663 134.415 156.99C134.415 157.41 134.489 157.811 134.639 158.194C134.788 158.577 134.993 158.917 135.255 159.216C135.525 159.505 135.847 159.739 136.221 159.916C136.594 160.093 137.009 160.182 137.467 160.182C137.887 160.182 138.227 160.079 138.489 159.874C138.759 159.659 138.969 159.356 139.119 158.964H139.147V160H141.751V159.804H140.827ZM146.802 156.29H144.562C144.571 156.047 144.585 155.795 144.604 155.534C144.632 155.263 144.688 155.016 144.772 154.792C144.856 154.559 144.982 154.367 145.15 154.218C145.327 154.069 145.574 153.994 145.892 153.994C146.116 153.994 146.288 154.045 146.41 154.148C146.54 154.251 146.634 154.377 146.69 154.526C146.746 154.675 146.778 154.825 146.788 154.974C146.797 155.123 146.802 155.249 146.802 155.352V156.29ZM144.562 156.486H148.692C148.692 156.01 148.608 155.604 148.44 155.268C148.272 154.923 148.057 154.643 147.796 154.428C147.534 154.213 147.24 154.055 146.914 153.952C146.587 153.849 146.26 153.798 145.934 153.798C145.476 153.798 145.047 153.891 144.646 154.078C144.254 154.255 143.908 154.493 143.61 154.792C143.32 155.081 143.092 155.417 142.924 155.8C142.756 156.183 142.672 156.575 142.672 156.976C142.672 157.48 142.76 157.933 142.938 158.334C143.115 158.726 143.358 159.062 143.666 159.342C143.983 159.613 144.352 159.823 144.772 159.972C145.192 160.112 145.644 160.182 146.13 160.182C146.54 160.182 146.89 160.121 147.18 160C147.469 159.888 147.712 159.748 147.908 159.58C148.104 159.403 148.258 159.216 148.37 159.02C148.482 158.815 148.561 158.623 148.608 158.446L148.412 158.376C148.402 158.46 148.356 158.591 148.272 158.768C148.197 158.945 148.076 159.127 147.908 159.314C147.749 159.491 147.539 159.65 147.278 159.79C147.026 159.93 146.713 160 146.34 160C145.92 160 145.593 159.911 145.36 159.734C145.126 159.557 144.949 159.333 144.828 159.062C144.706 158.782 144.632 158.474 144.604 158.138C144.576 157.793 144.562 157.452 144.562 157.116V156.486ZM158.398 157.144V150.228H159.686V150.032H155.08V150.228H156.368V159.09C156.368 159.174 156.363 159.272 156.354 159.384C156.354 159.487 156.335 159.585 156.298 159.678C156.261 159.771 156.2 159.851 156.116 159.916C156.041 159.972 155.925 160 155.766 160C155.729 160 155.673 160 155.598 160C155.533 159.991 155.467 159.972 155.402 159.944C155.337 159.907 155.276 159.851 155.22 159.776C155.173 159.701 155.15 159.594 155.15 159.454C155.15 159.417 155.159 159.351 155.178 159.258C155.197 159.165 155.22 159.062 155.248 158.95C155.276 158.838 155.299 158.731 155.318 158.628C155.337 158.525 155.346 158.441 155.346 158.376C155.346 158.227 155.313 158.11 155.248 158.026C155.192 157.933 155.117 157.863 155.024 157.816C154.94 157.769 154.847 157.741 154.744 157.732C154.651 157.713 154.567 157.704 154.492 157.704C154.212 157.704 153.997 157.751 153.848 157.844C153.699 157.928 153.587 158.026 153.512 158.138C153.447 158.25 153.409 158.362 153.4 158.474C153.391 158.577 153.386 158.651 153.386 158.698C153.386 158.997 153.456 159.244 153.596 159.44C153.736 159.636 153.913 159.79 154.128 159.902C154.343 160.014 154.581 160.089 154.842 160.126C155.103 160.173 155.355 160.196 155.598 160.196C156.289 160.196 156.821 160.079 157.194 159.846C157.577 159.613 157.857 159.337 158.034 159.02C158.211 158.693 158.314 158.357 158.342 158.012C158.379 157.667 158.398 157.377 158.398 157.144ZM160.96 156.892V160H161.184C161.231 159.869 161.282 159.785 161.338 159.748C161.394 159.701 161.487 159.678 161.618 159.678C161.711 159.678 161.851 159.706 162.038 159.762C162.234 159.818 162.453 159.879 162.696 159.944C162.948 160 163.214 160.056 163.494 160.112C163.783 160.168 164.073 160.196 164.362 160.196C164.941 160.196 165.463 160.107 165.93 159.93C166.406 159.743 166.812 159.496 167.148 159.188C167.493 158.88 167.759 158.521 167.946 158.11C168.133 157.699 168.226 157.265 168.226 156.808C168.226 156.341 168.137 155.949 167.96 155.632C167.792 155.315 167.568 155.044 167.288 154.82C167.008 154.596 166.686 154.414 166.322 154.274C165.967 154.125 165.599 153.989 165.216 153.868C164.843 153.747 164.474 153.63 164.11 153.518C163.755 153.406 163.438 153.275 163.158 153.126C162.878 152.967 162.649 152.781 162.472 152.566C162.304 152.351 162.22 152.081 162.22 151.754C162.22 151.539 162.271 151.329 162.374 151.124C162.477 150.919 162.626 150.732 162.822 150.564C163.018 150.396 163.256 150.261 163.536 150.158C163.825 150.055 164.157 150.004 164.53 150.004C164.987 150.004 165.365 150.083 165.664 150.242C165.963 150.401 166.21 150.611 166.406 150.872C166.602 151.124 166.761 151.409 166.882 151.726C167.013 152.043 167.134 152.365 167.246 152.692H167.428V150.032H167.204C167.157 150.144 167.111 150.223 167.064 150.27C167.027 150.307 166.943 150.326 166.812 150.326C166.7 150.326 166.574 150.298 166.434 150.242C166.303 150.186 166.149 150.13 165.972 150.074C165.795 150.009 165.589 149.948 165.356 149.892C165.123 149.836 164.852 149.808 164.544 149.808C164.059 149.808 163.606 149.892 163.186 150.06C162.775 150.219 162.421 150.433 162.122 150.704C161.823 150.965 161.59 151.269 161.422 151.614C161.254 151.959 161.17 152.319 161.17 152.692C161.17 153.196 161.249 153.616 161.408 153.952C161.576 154.288 161.795 154.573 162.066 154.806C162.337 155.03 162.645 155.217 162.99 155.366C163.335 155.506 163.69 155.632 164.054 155.744C164.418 155.847 164.773 155.949 165.118 156.052C165.463 156.155 165.771 156.281 166.042 156.43C166.313 156.579 166.527 156.766 166.686 156.99C166.854 157.214 166.938 157.499 166.938 157.844C166.938 158.031 166.901 158.25 166.826 158.502C166.751 158.745 166.621 158.978 166.434 159.202C166.257 159.426 166.009 159.617 165.692 159.776C165.375 159.925 164.969 160 164.474 160C164.334 160 164.18 160 164.012 160C163.853 159.991 163.681 159.963 163.494 159.916C163.317 159.86 163.125 159.776 162.92 159.664C162.724 159.552 162.519 159.389 162.304 159.174C162.108 158.987 161.94 158.787 161.8 158.572C161.669 158.348 161.557 158.133 161.464 157.928C161.38 157.713 161.315 157.517 161.268 157.34C161.221 157.153 161.189 157.004 161.17 156.892H160.96Z" fill="#464646"/>
</svg>
